<svg xmlns="http://www.w3.org/2000/svg" width="60" height="60" style="shape-rendering:geometricPrecision;text-rendering:geometricPrecision;image-rendering:optimizeQuality;fill-rule:evenodd;clip-rule:evenodd" version="1.1"><g><path fill="#4a5dae" d="M26.5-.5h4c-.12 1.086-.787 1.753-2 2-1.213-.247-1.88-.914-2-2Z" style="opacity:.647"/></g><g><path fill="#6573b9" d="M21.5-.5h4c-.605 1.526-1.771 2.526-3.5 3a4.932 4.932 0 0 1-.5-3Z" style="opacity:.61"/></g><g><path fill="#5c6bb6" d="M31.5-.5h4c1.062 1.075 1.062 2.075 0 3-1.983-.315-3.316-1.315-4-3Z" style="opacity:.518"/></g><g><path fill="#6873bb" d="M37.5.5c1.208.734 2.541 1.067 4 1a4.932 4.932 0 0 1-.5 3c-1.011-.837-2.178-1.17-3.5-1v-3Z" style="opacity:.48"/></g><g><path fill="#5465b2" d="M42.5 3.5c1.495-.085 2.495.581 3 2-1.896 1.14-2.896.473-3-2Z" style="opacity:.376"/></g><g><path fill="#f88478" d="M26.5 4.5h3a73.123 73.123 0 0 1-1 17 6.845 6.845 0 0 0-4-1c-2.715-1.572-5.715-2.572-9-3a32.437 32.437 0 0 1 .5-8 51.394 51.394 0 0 0 10.5-5Z" style="opacity:1"/></g><g><path fill="#84699c" d="M32.5 6.5c-.354 5.906-1.354 11.573-3 17a27.185 27.185 0 0 1-5-3 6.845 6.845 0 0 1 4 1 73.123 73.123 0 0 0 1-17h-3c1.602-1.574 3.602-2.24 6-2v4Z" style="opacity:1"/></g><g><path fill="#676eb6" d="M26.5 4.5a51.394 51.394 0 0 1-10.5 5 32.437 32.437 0 0 0-.5 8c-.624.417-.957 1.084-1 2 .888 1.655 1.388 3.322 1.5 5-1.75 1.309-3.25.976-4.5-1a455.29 455.29 0 0 1-5 4c-5.62-1.405-6.954-4.572-4-9.5-1.017-2.787-1.184-5.62-.5-8.5 4.08-.8 8.247-1.3 12.5-1.5a82.028 82.028 0 0 1 12-3.5Zm-19 6h6v5h-6v-5Zm1 9-2 5h-3c-.605-4.625 1.061-6.292 5-5Z" style="opacity:.724"/></g><g><path fill="#5b68b4" d="M38.5 8.5c1.67.251 3.17.918 4.5 2 2.333-2.667 4.667-2.667 7 0 4.99-3.25 7.157-2.084 6.5 3.5a10.521 10.521 0 0 0 3 2.5v6c-.117-5.112-2.784-7.445-8-7v3c-3.375-2.582-6.708-2.582-10 0v-3h-5c-.334-2.688.333-5.021 2-7Zm14 2c3.81 1.254 3.81 2.254 0 3v-3Zm-7 0c1.495-.085 2.495.582 3 2-.82 1.611-2.154 2.278-4 2-.067-1.459.266-2.792 1-4Zm-7 0c1.548.321 2.215 1.321 2 3-2.748.098-3.414-.902-2-3Z" style="opacity:.859"/></g><g><path fill="#76a5ed" d="M36.5 15.5h5v9c-2.217-.869-4.55-1.202-7-1-.163-2.357.003-4.69.5-7 .383-.556.883-.89 1.5-1Z" style="opacity:1"/></g><g><path fill="#f68276" d="M51.5 18.5v6h-10v-6c3.292-2.582 6.625-2.582 10 0Z" style="opacity:1"/></g><g><path fill="#c7ebf8" d="M15.5 17.5c3.285.428 6.285 1.428 9 3a27.185 27.185 0 0 0 5 3c-.762.768-1.762 1.268-3 1.5 1.882.198 3.548.698 5 1.5-11.942-.074-16.942 5.593-15 17 .215 1.679-.452 2.679-2 3-5.675-5.022-8.342-11.355-8-19a455.29 455.29 0 0 0 5-4c1.25 1.976 2.75 2.309 4.5 1-.112-1.678-.612-3.345-1.5-5 .043-.916.376-1.583 1-2Z" style="opacity:.968"/></g><g><path fill="#d3f5fc" d="M8.5 19.5c2.574 2.517 1.908 4.184-2 5l2-5Z" style="opacity:.447"/></g><g><path fill="#7990d4" d="M59.5 22.5v1c-3.04.51-6.04 1.177-9 2-3.213.31-6.213-.023-9-1h10v-9c5.216-.445 7.883 1.888 8 7Z" style="opacity:.871"/></g><g><path fill="#c8edf9" d="M32.5 6.5a31.703 31.703 0 0 1 6 2c-1.667 1.979-2.334 4.312-2 7-.617.11-1.117.444-1.5 1a24.939 24.939 0 0 0-.5 7c2.45-.202 4.783.131 7 1 2.787.977 5.787 1.31 9 1 1.418 9.128-1.582 16.128-9 21 2.35-6.78 1.016-12.613-4-17.5a4.932 4.932 0 0 0-3-.5c-.79-.901-1.79-1.568-3-2-1.452-.802-3.118-1.302-5-1.5 1.238-.232 2.238-.732 3-1.5 1.646-5.427 2.646-11.094 3-17Z" style="opacity:.958"/></g><g><path fill="#5a6bb6" d="M55.5 25.5c1.965.448 2.298 1.448 1 3-.886-.825-1.219-1.825-1-3Z" style="opacity:.157"/></g><g><path fill="#404ca4" d="M31.5 26.5c1.21.432 2.21 1.099 3 2-12.019-2.319-18.019 2.681-18 15-1.942-11.407 3.058-17.074 15-17Z" style="opacity:.643"/></g><g><path fill="#6b77bc" d="M-.5 27.5c1.086.12 1.753.787 2 2-.247 1.213-.914 1.88-2 2v-4Z" style="opacity:1"/></g><g><path fill="#656fb6" d="M56.5 34.5c-1.166-1.666-1.166-3.333 0-5 1.288 1.799 1.288 3.465 0 5Z" style="opacity:.282"/></g><g><path fill="#5768b3" d="M-.5 32.5c2.619.903 3.286 2.57 2 5a30.958 30.958 0 0 0-2-2v-3Z" style="opacity:.671"/></g><g><path fill="#5662b1" d="M34.5 28.5a4.932 4.932 0 0 1 3 .5c5.016 4.887 6.35 10.72 4 17.5a111.25 111.25 0 0 0 5 2l-3 4c1.145 1.391 1.145 2.724 0 4l-4-2a11.074 11.074 0 0 1-3.5 2c-1.098-.884-1.598-1.884-1.5-3-1 .333-1.667 1-2 2a6.845 6.845 0 0 1 1 4h-3c-1.134-2.281-2.468-2.281-4 0h-2a6.845 6.845 0 0 1 1-4c-.333-1-1-1.667-2-2 .098 1.116-.402 2.116-1.5 3a11.292 11.292 0 0 1-4-2c-1.11 1.537-2.61 2.203-4.5 2-.213-1.644.12-3.144 1-4.5a19.894 19.894 0 0 0-4-3.5c1.266-.862 2.6-1.53 4-2 1.548-.321 2.215-1.321 2-3 .65-.304 1.317-.637 2-1a16.869 16.869 0 0 0 1-8 45.626 45.626 0 0 1 19 0v9h3c.524-6.467-1.81-11.467-7-15Z" style="opacity:.713"/></g><g><path fill="#5868b4" d="M56.5 34.5c.806 1.664.473 3.331-1 5-1.394-2.082-1.061-3.749 1-5Z" style="opacity:.495"/></g><g><path fill="#7db0f9" d="M35.5 50.5c-1.419.951-3.085 1.285-5 1-.722-.417-1.222-1.084-1.5-2-.278.916-.778 1.583-1.5 2-1.915.285-3.581-.049-5-1 0-.667.333-1 1-1 .543-.06.876-.393 1-1-1.189-.929-2.522-1.262-4-1v-12h5v3h7v-3h5v12c-1.478-.262-2.811.071-4 1 .355 1.022 1.022 1.689 2 2Z" style="opacity:1"/></g><g><path fill="#5c6bb4" d="M1.5 38.5c1.839 1.008 3.172 2.508 4 4.5-2.993.257-4.326-1.243-4-4.5Z" style="opacity:.602"/></g><g><path fill="#5869b5" d="M53.5 40.5c2.385 1.367 2.052 2.7-1 4l-1-1a186.2 186.2 0 0 0 2-3Z" style="opacity:.788"/></g><g><path fill="#5363b2" d="M4.5 44.5c1.495-.085 2.495.581 3 2-1.896 1.14-2.896.473-3-2Z" style="opacity:.565"/></g><g><path fill="#5a6ab5" d="M49.5 45.5c3.8.32 3.967 1.32.5 3a4.932 4.932 0 0 1-.5-3Z" style="opacity:.082"/></g><g><path fill="#f18377" d="M23.5 49.5c-.667 0-1 .333-1 1a70.679 70.679 0 0 0-2 4c-1.667-1.333-3.333-1.333-5 0 .52-1.936-.147-3.77-2-5.5 2.348-.11 3.848-1.277 4.5-3.5 1.462 1.968 3.295 3.302 5.5 4Z" style="opacity:1"/></g><g><path fill="#ed8178" d="M35.5 50.5a169.029 169.029 0 0 1 4.5-5c.483.948.65 1.948.5 3a8.434 8.434 0 0 1 4 .5c-1.504 1.49-2.337 3.324-2.5 5.5-1.356-.88-2.856-1.214-4.5-1 .215-1.679-.452-2.679-2-3Z" style="opacity:1"/></g><g><path fill="#f48476" d="M30.5 51.5c.418.722 1.084 1.222 2 1.5a15.276 15.276 0 0 0-1.5 4.5c-1.333-1.333-2.667-1.333-4 0a15.276 15.276 0 0 0-1.5-4.5c.916-.278 1.582-.778 2-1.5.722-.417 1.222-1.084 1.5-2 .278.916.778 1.583 1.5 2Z" style="opacity:1"/></g></svg>