<svg xmlns="http://www.w3.org/2000/svg" width="60" height="60" fill="none" viewBox="0 0 60 60"><g clip-path="url(#clip0)"><path fill="#4162AA" d="M16.09 55.031h11.577a.803.803 0 0 1 .524.186c.142.12.225.285.232.459v3.649c0 .179-.08.35-.221.477a.805.805 0 0 1-.535.198H15.751a.804.804 0 0 1-.531-.2.64.64 0 0 1-.22-.475v-3.649c0-.178.08-.349.22-.474a.8.8 0 0 1 .531-.197h.168a.738.738 0 0 1 .171 0v.026Zm27.8.018h.034a.738.738 0 0 1 .172 0h.162a.8.8 0 0 1 .509.184c.137.116.22.274.233.443v3.649c0 .088-.02.176-.058.258a.676.676 0 0 1-.163.22.77.77 0 0 1-.246.146.837.837 0 0 1-.29.051H32.349a.805.805 0 0 1-.535-.198.64.64 0 0 1-.222-.477v-3.649a.61.61 0 0 1 .058-.258.673.673 0 0 1 .164-.218.764.764 0 0 1 .246-.145.833.833 0 0 1 .289-.05H43.89v.044Z"/><path fill="#FCB79B" d="M43.63 52.995H32.367a.77.77 0 0 1-.526-.242.743.743 0 0 1-.198-.538c.035-.634.08-1.248.129-1.882l.104-.975c.094-.8.179-1.492.288-2.12.1-.6.267-1.187.496-1.75.223-.551.53-1.066.908-1.527a11 11 0 0 1 1.548-1.526l.382-.312.417-.322c.119-.087.243-.175.377-.263l.04-.029c.144-.097.293-.186.446-.268 1.509-.834 3.419-2.833 5.051-4.52.7-.73 1.355-1.413 1.93-1.95.868-.828 1.866-1.706 2.68-2.569a7.04 7.04 0 0 1 .937-.907l.045-.034a4.404 4.404 0 0 1 1.087-.653 2.643 2.643 0 0 1 1.627-.122c.272.07.527.192.75.36.242.183.43.425.545.703.167.41.188.864.06 1.287a3.08 3.08 0 0 1-.388.853 3.9 3.9 0 0 1-.63.746c-2.48 2.516-4.773 5.85-7.264 8.288a.28.28 0 0 0 .229.463.285.285 0 0 0 .178-.078c2.481-2.554 5.458-4.977 8.003-7.493.166-.153.322-.316.467-.488.132-.17.251-.349.357-.536 1.136-1.672 3.146-7.279 4.088-9.487a.885.885 0 0 1 .144-.22c.211-.227.455-.423.725-.58.255-.154.54-.252.838-.287a1.49 1.49 0 0 1 .452 0 1.387 1.387 0 0 1 .813.531l.03.039c.102.15.182.315.238.488a4.46 4.46 0 0 1 .179 2.086 12.406 12.406 0 0 1-.63 2.594c-.685 2.125-1.285 4.387-1.88 6.567a17.869 17.869 0 0 1-1.177 3.549 16.808 16.808 0 0 1-2.6 3.578c-1.146 1.297-2.277 2.438-3.378 3.55-1.102 1.111-2.129 2.032-3.2 3.022l-1.524 1.424c-.426.404-.873.829-1.354 1.297a.768.768 0 0 1-.576.258v-.005Zm-16.01 0H16.38a.754.754 0 0 1-.575-.258c-.427-.41-.884-.849-1.36-1.297-.476-.449-1.037-.936-1.523-1.424a132.235 132.235 0 0 1-3.195-3.022 68.98 68.98 0 0 1-3.38-3.55 16.86 16.86 0 0 1-2.59-3.573 18.258 18.258 0 0 1-1.195-3.515l-.526-1.911c-.446-1.55-.873-3.145-1.354-4.68a12.098 12.098 0 0 1-.63-2.57 4.474 4.474 0 0 1 .173-2.086 2.18 2.18 0 0 1 .243-.488c.108-.152.244-.283.402-.385.134-.088.284-.15.442-.18a1.45 1.45 0 0 1 .446 0h.03c.297.036.583.134.838.287.267.151.51.34.72.56.06.065.109.14.144.22.947 2.209 2.977 7.8 4.088 9.488.108.187.229.366.362.536.144.173.3.336.467.487 2.555 2.53 5.542 4.954 7.998 7.508.05.047.115.075.183.078a.342.342 0 0 0 .18-.048l.049-.044a.31.31 0 0 0 .07-.171.294.294 0 0 0-.055-.175c-2.303-2.633-4.873-5.904-7.28-8.337a4.063 4.063 0 0 1-.614-.746l-.03-.054a2.963 2.963 0 0 1-.357-.8 1.976 1.976 0 0 1 .06-1.291l.024-.054c.12-.252.301-.473.526-.643.222-.17.477-.292.75-.361a2.643 2.643 0 0 1 1.607.112 4.7 4.7 0 0 1 1.086.643c.365.29.697.617.993.976.625.745 1.91 1.833 2.669 2.554.57.536 1.226 1.219 1.93 1.95 1.657 1.677 3.543 3.676 5.066 4.495.153.08.302.168.446.264.15.092.288.194.417.292l.412.322.387.312c.567.456 1.086.967 1.548 1.526.382.46.69.974.913 1.526.225.565.39 1.152.496 1.75.11.629.189 1.321.288 2.12l.1.976a49.4 49.4 0 0 1 .128 1.882.731.731 0 0 1-.194.537.751.751 0 0 1-.525.243l-.06.02Z"/><path fill="#F55" d="M48.008 10.111c.127-5.45-4.155-10.07-9.549-10.13-3.611-.039-6.77 1.926-8.46 4.862-1.69-2.936-4.849-4.901-8.46-4.861-5.394.06-9.676 4.678-9.549 10.13.285 12.18 14.697 22.774 17.529 24.74a.84.84 0 0 0 .96 0c2.833-1.966 17.244-12.56 17.529-24.74Z"/><path fill="#F6F6F6" d="M35.407 13.703h-2.523a.596.596 0 0 1-.596-.596v-2.524a.596.596 0 0 0-.596-.595h-3.386a.596.596 0 0 0-.596.595v2.524a.596.596 0 0 1-.595.596H24.59a.596.596 0 0 0-.596.595v3.387c0 .329.267.595.596.595h2.524c.329 0 .595.267.595.596V21.4c0 .329.267.595.596.595h3.386a.596.596 0 0 0 .596-.595v-2.524c0-.329.267-.596.596-.596h2.523a.596.596 0 0 0 .596-.595v-3.387a.596.596 0 0 0-.596-.595Z"/><path fill="#F72B2B" d="M48.01 9.857c0 12.278-14.436 23.016-17.254 24.996a.82.82 0 0 1-.947 0 56.662 56.662 0 0 1-3.813-2.952c2.83-1.99 17.248-12.722 17.248-24.992 0-2.492-.33-4.209-1.838-5.927 2.752.558 6.605 4.32 6.605 8.875Z"/></g><defs><clipPath id="clip0"><path fill="#fff" d="M0 0h60v60H0z"/></clipPath></defs></svg>